<svg xmlns="http://www.w3.org/2000/svg" viewBox="0 0 900 520" role="img" aria-labelledby="title desc">
  <title id="title">Schema Texas Rig antincaglio</title>
  <desc id="desc">Schema semplificato di piombo bullet, amo offset e esca siliconica montata weedless.</desc>
  <rect width="900" height="520" rx="28" fill="#0f172a"/>
  <g font-family="system-ui, sans-serif" fill="#f8fafc" font-weight="700">
    <text x="55" y="58" font-size="32">Texas Rig · montaggio antincaglio</text>
  </g>
  <g stroke="#38bdf8" stroke-width="8" fill="none" stroke-linecap="round" stroke-linejoin="round">
    <path d="M85 205 L785 205"/>
    <path d="M270 205 L350 205"/>
    <path d="M585 205 C620 205 650 225 650 260 C650 310 590 325 555 285 C530 255 548 220 585 220"/>
    <path d="M650 260 L705 320"/>
    <path d="M705 320 C740 355 790 342 804 302"/>
  </g>
  <path d="M350 165 L455 205 L350 245 Z" fill="#f59e0b" opacity="0.95"/>
  <path d="M455 205 C500 160 610 150 690 190 C735 214 760 254 738 282 C708 321 604 314 530 282 C486 263 462 236 455 205 Z" fill="#22c55e" opacity="0.88"/>
  <circle cx="690" cy="215" r="7" fill="#0f172a"/>
  <g stroke="#f8fafc" stroke-width="4" fill="none" stroke-linecap="round">
    <path d="M510 205 L555 205"/>
    <path d="M555 205 L585 220"/>
  </g>
  <g font-family="system-ui, sans-serif" fill="#cbd5e1" font-size="24" font-weight="600">
    <text x="305" y="135">Piombo bullet</text>
    <text x="540" y="365">Amo offset nascosto nel silicone</text>
    <text x="75" y="420">1 · Inserisci il bullet sul filo</text>
    <text x="75" y="458">2 · Lega l’amo offset</text>
    <text x="450" y="420">3 · Innesca dritto il silicone</text>
    <text x="450" y="458">4 · Nascondi la punta nel corpo</text>
  </g>
</svg>
